<?xml version="1.0" standalone="no"?><!DOCTYPE svg PUBLIC "-//W3C//DTD SVG 1.1//EN" "http://www.w3.org/Graphics/SVG/1.1/DTD/svg11.dtd"><svg t="1637824239929" class="icon" viewBox="0 0 1024 1024" version="1.1" xmlns="http://www.w3.org/2000/svg" p-id="4233" xmlns:xlink="http://www.w3.org/1999/xlink" width="150" height="150"><defs><style type="text/css"></style></defs><path d="M764.655025 142.721909h-75.402613v-114.059627c0-15.827225-12.826126-28.662282-28.662282-28.662282-4.590967 0-8.860388 1.179003-12.710012 3.090417-0.794934 0.294751-1.438027 0.786002-2.170438 1.179004-0.652024 0.401933-1.286185 0.803866-1.902482 1.250458-1.143276 0.803866-2.250824 1.589868-3.179736 2.625961a28.57475 28.57475 0 0 0-8.172636 15.300246c-4.278352 2.85819-12.522443 6.189767-24.330338 6.189767-16.541772 0-26.465049-6.54704-27.501143-8.395932 0-10.56637-8.556705-19.105211-19.105211-19.105211-0.33941 0-0.625229 0.178637-0.964639 0.196501-0.91998-0.142909-1.750641-0.571638-2.706348-0.571638-10.557438 0-19.05162 8.172636-19.05162 18.721142-1.16114 2.61703-11.075485 9.16407-27.617256 9.16407-16.541772 0-26.456117-6.54704-27.492211-8.395932 0-10.56637-8.556705-19.105211-19.105211-19.105211-0.33941 0-0.625229 0.178637-0.964639 0.196501-0.91998-0.142909-1.750641-0.571638-2.706348-0.571638-10.557438 0-19.05162 8.172636-19.05162 18.721141-1.16114 2.61703-11.075485 9.16407-27.617257 9.164071-10.557438 0-18.042322-2.643825-22.615425-5.055423-1.375504-6.484518-5.019695-12.066919-9.976868-16.121976-3.49235-3.83176-8.413796-6.332676-14.01406-6.332676-0.214364 0-0.393001 0.116114-0.598434 0.125046-1.134344-0.133978-2.250824-0.348342-3.429827-0.348342-15.836157 0-28.662282 12.835057-28.662282 28.662282V142.721909h-75.402614c-45.418418 0-82.378382 36.951032-82.378382 82.36945v211.4703c0 29.626921 0.044659 98.94695 50.741797 124.331246-4.260489 11.941873-6.645291 24.589362-6.645291 37.701307v317.393018c0 59.566457 46.311603 108.01277 103.234234 108.01277h375.226698c56.922631 0 103.234234-48.446313 103.234234-108.01277V598.603144c0-13.103013-2.384802-25.759433-6.645291-37.701307 50.697137-25.384296 50.741796-94.704325 50.741797-124.331246V225.100291c-0.017864-45.42735-36.977827-82.378382-82.396246-82.378382zM462.69623 53.153394c11.834691 9.083684 28.805192 14.701813 48.473109 14.701812 19.658985 0 36.638417-5.618129 48.48204-14.701812 11.834691 9.083684 28.814123 14.701813 48.48204 14.701812 8.512046 0 16.461385-1.16114 23.80336-3.072553v190.417947H392.250789V65.175654c6.850723 1.625595 14.139106 2.679553 21.963401 2.679552 19.667917 0 36.647349-5.618129 48.48204-14.701812z m282.907175 862.842768c0 27.956667-20.596828 50.688205-45.90967 50.688206h-375.226697c-25.312841 0-45.90967-22.731539-45.90967-50.688206V598.603144c0-11.754305 3.53701-22.767266 10.218028-31.85095 0.518047-0.705616 0.857457-1.473754 1.304049-2.215097 6.877519-5.23406 11.388099-13.433491 11.388099-22.740471 0-15.827225-12.826126-28.662282-28.662283-28.662282-22.454652 0-38.353331-5.484151-38.353331-76.563753V225.100291c0-13.808628 11.236258-25.044886 25.053818-25.044886h75.402613v55.154127h-2.831394c-15.827225 0-28.662282 12.835057-28.662282 28.662282 0 15.827225 12.835057 28.662282 28.662282 28.662282h359.980043c15.827225 0 28.662282-12.835057 28.662282-28.662282 0-15.827225-12.835057-28.662282-28.662282-28.662282h-2.831394v-55.154127h75.402614c13.81756 0 25.053818 11.236258 25.053817 25.044886v211.4703c0 71.079602-15.889748 76.563753-38.353331 76.563753-15.836157 0-28.662282 12.835057-28.662282 28.662282 0 9.289116 4.492717 17.470684 11.352372 22.704743 0.43766 0.714547 0.768138 1.464822 1.277253 2.152574 6.734609 9.128343 10.289482 20.177032 10.289483 31.949201v317.393018z" fill="#666666" p-id="4234"></path><path d="M655.79373 387.472254H368.393838c-25.866615 0-46.918968 21.052352-46.918968 46.918968v126.171205c0 25.866615 21.052352 46.892172 46.918968 46.892172h287.39096c25.866615 0 46.901104-21.034489 46.901105-46.892172V434.38229c0.008932-25.866615-21.034489-46.910036-46.892173-46.910036z m-10.42346 162.648849H378.808367V444.796818h266.561903V550.121103zM438.964325 171.178759H564.519233c13.192331 0 23.883746-10.691415 23.883747-23.883747s-10.691415-23.883746-23.883747-23.883746H438.964325c-13.192331 0-23.883746 10.691415-23.883747 23.883746s10.691415 23.883746 23.883747 23.883747zM438.964325 235.13075h73.526926c13.192331 0 23.883746-10.691415 23.883747-23.883746 0-13.192331-10.691415-23.883746-23.883747-23.883747h-73.526926c-13.192331 0-23.883746 10.700347-23.883747 23.883747 0 13.192331 10.691415 23.883746 23.883747 23.883746z" fill="#666666" p-id="4235"></path><path d="M406.282714 695.084905m-28.662282 0a28.662282 28.662282 0 1 0 57.324564 0 28.662282 28.662282 0 1 0-57.324564 0Z" fill="#666666" p-id="4236"></path><path d="M406.282714 779.455088m-28.662282 0a28.662282 28.662282 0 1 0 57.324564 0 28.662282 28.662282 0 1 0-57.324564 0Z" fill="#666666" p-id="4237"></path><path d="M406.282714 863.816339m-28.662282 0a28.662282 28.662282 0 1 0 57.324564 0 28.662282 28.662282 0 1 0-57.324564 0Z" fill="#666666" p-id="4238"></path><path d="M508.409399 695.084905m-28.662282 0a28.662282 28.662282 0 1 0 57.324565 0 28.662282 28.662282 0 1 0-57.324565 0Z" fill="#666666" p-id="4239"></path><path d="M508.409399 779.455088m-28.662282 0a28.662282 28.662282 0 1 0 57.324565 0 28.662282 28.662282 0 1 0-57.324565 0Z" fill="#666666" p-id="4240"></path><path d="M508.409399 863.816339m-28.662282 0a28.662282 28.662282 0 1 0 57.324565 0 28.662282 28.662282 0 1 0-57.324565 0Z" fill="#666666" p-id="4241"></path><path d="M610.545017 695.084905m-28.662282 0a28.662282 28.662282 0 1 0 57.324564 0 28.662282 28.662282 0 1 0-57.324564 0Z" fill="#666666" p-id="4242"></path><path d="M610.545017 779.455088m-28.662282 0a28.662282 28.662282 0 1 0 57.324564 0 28.662282 28.662282 0 1 0-57.324564 0Z" fill="#666666" p-id="4243"></path><path d="M610.545017 863.816339m-28.662282 0a28.662282 28.662282 0 1 0 57.324564 0 28.662282 28.662282 0 1 0-57.324564 0Z" fill="#666666" p-id="4244"></path></svg>