<?xml version="1.0" standalone="no"?>
<!DOCTYPE svg PUBLIC "-//W3C//DTD SVG 20010904//EN"
 "http://www.w3.org/TR/2001/REC-SVG-20010904/DTD/svg10.dtd">
<svg version="1.0" xmlns="http://www.w3.org/2000/svg"
 width="32.000000pt" height="32.000000pt" viewBox="0 0 32.000000 32.000000"
 preserveAspectRatio="xMidYMid meet">

<g transform="translate(0.000000,32.000000) scale(0.100000,-0.100000)"
fill="#000000" stroke="none">
<path d="M92 292 l-82 -15 0 -117 0 -117 72 -12 c40 -7 81 -15 91 -17 14 -4
17 1 17 30 l0 35 58 3 57 3 0 75 0 75 -57 3 -58 3 0 34 c0 19 -3 35 -7 34 -5
-1 -45 -8 -91 -17z m173 -102 c-36 -37 -40 -39 -57 -23 -10 9 -18 27 -18 40 0
21 4 23 57 23 l57 0 -39 -40z m-127 18 c15 -15 16 -63 2 -89 -14 -26 -66 -26
-80 0 -13 25 -13 57 0 82 12 22 59 26 78 7z m162 -63 l0 -55 -55 0 -55 0 0 35
c0 33 1 34 20 23 17 -11 24 -9 52 20 18 17 34 32 35 32 2 0 3 -25 3 -55z"/>
<path d="M80 160 c0 -23 4 -30 20 -30 16 0 20 7 20 30 0 23 -4 30 -20 30 -16
0 -20 -7 -20 -30z"/>
</g>
</svg>
