<?xml version="1.0" standalone="no"?><!DOCTYPE svg PUBLIC "-//W3C//DTD SVG 1.1//EN" "http://www.w3.org/Graphics/SVG/1.1/DTD/svg11.dtd"><svg t="1625187178422" class="icon" viewBox="0 0 1024 1024" version="1.1" xmlns="http://www.w3.org/2000/svg" p-id="6605" xmlns:xlink="http://www.w3.org/1999/xlink" width="32" height="32"><defs><style type="text/css"></style></defs><path d="M886.596702 530.166917c-7.164418-10.746627-18.422789-18.422789-31.216392-18.422789h-253.825088c-12.793603 0-25.587206 7.164418-31.216391 18.422789l-125.889056 219.53823c-7.164418 10.746627-7.164418 25.587206 0 36.333834l125.889056 219.53823c7.164418 10.746627 18.422789 18.422789 31.216391 18.422789h253.825088c12.793603 0 25.587206-7.164418 31.216392-18.422789l125.889055-219.53823c7.164418-10.746627 7.164418-25.587206 0-36.333834l-125.889055-219.53823z m-52.709646 420.141929h-210.326836L517.629185 767.616192l105.931035-182.692654h210.326836l105.931035 182.692654-105.931035 182.692654z" p-id="6606"></path><path d="M729.491254 639.68016c-71.132434 0-127.936032 56.803598-127.936032 127.936032s56.803598 127.936032 127.936032 127.936032 127.936032-56.803598 127.936032-127.936032-58.338831-127.936032-127.936032-127.936032z m0 182.692654c-31.216392 0-54.756622-23.54023-54.756621-54.756622s23.54023-54.756622 54.756621-54.756622 54.756622 23.54023 54.756622 54.756622-25.587206 54.756622-54.756622 54.756622z" p-id="6607"></path><path d="M914.230885 0H109.769115C49.383308 0 0.255872 49.127436 0.255872 109.513243v803.950025C0.255872 974.36082 49.383308 1023.488256 109.769115 1023.488256h292.205897c19.958021 0 36.333833-16.375812 36.333834-36.333833 0-19.958021-16.375812-36.333833-36.333834-36.333833H109.769115c-19.958021 0-36.333833-16.375812-36.333833-36.333833V109.513243c0-19.958021 16.375812-36.333833 36.333833-36.333833h803.950025c19.958021 0 36.333833 16.375812 36.333834 36.333833v294.252874c0 19.958021 16.375812 36.333833 36.333833 36.333833 19.958021 0 36.333833-16.375812 36.333833-36.333833V109.513243C1023.744128 49.127436 974.616692 0 914.230885 0z" p-id="6608"></path><path d="M548.333833 219.538231c0-19.958021-16.375812-36.333833-36.333833-36.333833H219.794103c-19.958021 0-36.333833 16.375812-36.333833 36.333833V511.744128c0 19.958021 16.375812 36.333833 36.333833 36.333833s36.333833-16.375812 36.333833-36.333833V255.872064h255.872064c19.958021 0 36.333833-16.375812 36.333833-36.333833z" p-id="6609"></path></svg>