<?xml version="1.0" standalone="no"?><!DOCTYPE svg PUBLIC "-//W3C//DTD SVG 1.1//EN" "http://www.w3.org/Graphics/SVG/1.1/DTD/svg11.dtd"><svg t="1607413811974" class="icon" viewBox="0 0 1024 1024" version="1.1" xmlns="http://www.w3.org/2000/svg" p-id="1706" xmlns:xlink="http://www.w3.org/1999/xlink" width="32" height="32"><defs><style type="text/css"></style></defs><path d="M667 198.3c17.1 0 31.1 14 31.1 31.1s-14 31.1-31.1 31.1H198v-62.2h469m0-70H128v202.2h539c55.8 0 101.1-45.3 101.1-101.1S722.8 128.3 667 128.3zM827.5 480.8c17.1 0 31.1 14 31.1 31.1s-14 31.1-31.1 31.1H198v-62.2h629.5m0-70H128V613h699.5c55.8 0 101.1-45.3 101.1-101.1s-45.3-101.1-101.1-101.1zM475 763.3c17.1 0 31.1 14 31.1 31.1s-14 31.1-31.1 31.1H198v-62.2h277m0-70H128v202.2h347c55.8 0 101.1-45.3 101.1-101.1S530.8 693.3 475 693.3z" p-id="1707"></path></svg>