<?xml version="1.0" standalone="no"?><!DOCTYPE svg PUBLIC "-//W3C//DTD SVG 1.1//EN" "http://www.w3.org/Graphics/SVG/1.1/DTD/svg11.dtd"><svg t="1625189024277" class="icon" viewBox="0 0 1024 1024" version="1.1" xmlns="http://www.w3.org/2000/svg" p-id="15494" xmlns:xlink="http://www.w3.org/1999/xlink" width="32" height="32"><defs><style type="text/css"></style></defs><path d="M449.4 677.5c-8.5 0-16.6-3.3-22.6-9.3L284.2 525.4c-12.2-12.7-11.9-32.9 0.8-45.1 12.4-11.9 31.9-11.9 44.3 0L471.9 623c12.5 12.4 12.5 32.6 0.1 45.1-6 6-14.1 9.4-22.6 9.4z m0 0c-17.6 0-31.9-14.3-31.9-31.9 0-8.4 3.3-16.5 9.3-22.5l267.9-267.9c12.7-12.2 32.9-11.9 45.1 0.8 11.9 12.4 11.9 31.9 0 44.3L471.9 668.2c-5.9 5.9-14 9.3-22.5 9.3z m62.5 344.5c-17.6-0.2-31.8-14.7-31.6-32.4 0.2-15.1 10.9-27.9 25.6-30.9 176.3-33.5 374.9-251.7 389-384l-0.2-359C686.5 187.9 502.3 65.3 494.2 59.9c-14.3-10.2-17.6-30.2-7.4-44.5C496.6 1.7 515.4-2 529.7 7c2 1.3 196.5 130.5 399.7 148.3 16.5 1.5 29.1 15.2 29.1 31.8v391C940 754.6 709.5 984.9 518 1021.4c-2 0.4-4 0.6-6.1 0.6z m0.2-0.3c-2 0-4.1-0.2-6.1-0.6-191.5-36.4-422-266.8-440.4-440l-0.1-394.2c0-16.6 12.6-30.4 29.1-31.8C298.2 137.1 492.2 8 494.2 6.7c15.1-9.2 34.7-4.4 43.9 10.7 8.6 14.1 5 32.5-8.3 42.3-8.1 5.4-192.3 127.9-400.6 155.7v362.4C143.1 706.7 341.7 924.9 518 958.5c17.3 3.5 28.5 20.4 25 37.7-3 14.7-15.9 25.4-30.9 25.5z" p-id="15495"></path></svg>