<?xml version="1.0" standalone="no"?><!DOCTYPE svg PUBLIC "-//W3C//DTD SVG 1.1//EN" "http://www.w3.org/Graphics/SVG/1.1/DTD/svg11.dtd"><svg t="1629078908055" class="icon" viewBox="0 0 1024 1024" version="1.1" xmlns="http://www.w3.org/2000/svg" p-id="6471" xmlns:xlink="http://www.w3.org/1999/xlink" width="200" height="200"><defs><style type="text/css"></style></defs><path d="M537.597504 198.480488c-12.798752-6.399376-19.198128-12.798752-31.99688-19.198128-12.798752-6.399376-25.597504-6.399376-38.396256-6.399376s-25.597504 0-38.396257 6.399376c-6.399376 6.399376-19.198128 12.798752-25.597504 19.198128-12.798752 12.798752-19.198128 19.198128-19.198128 31.99688-6.399376 12.798752-6.399376 25.597504-6.399376 38.396257s0 25.597504 6.399376 38.396256c0 6.399376 6.399376 19.198128 19.198128 25.597504 6.399376 6.399376 19.198128 12.798752 31.99688 19.198129 12.798752 6.399376 25.597504 6.399376 38.396257 6.399376s25.597504 0 38.396256-6.399376 19.198128-12.798752 31.99688-19.198129c6.399376-6.399376 12.798752-19.198128 19.198128-31.99688s6.399376-25.597504 6.399377-38.396256c0-12.798752 0-25.597504-6.399377-38.396257-12.798752-6.399376-19.198128-12.798752-25.597504-25.597504zM735.978162 467.254283c-6.399376-6.399376-12.798752-6.399376-12.798752-12.798752-6.399376 0-12.798752-6.399376-19.198128-6.399376s-12.798752 0-19.198128 6.399376c-6.399376 0-12.798752 6.399376-12.798752 12.798752-6.399376 6.399376-6.399376 12.798752-12.798753 12.798752 0 6.399376-6.399376 12.798752-6.399376 19.198128s0 12.798752 6.399376 19.198128c0 6.399376 6.399376 12.798752 12.798753 12.798752 6.399376 6.399376 12.798752 6.399376 12.798752 12.798752 6.399376 0 12.798752 6.399376 19.198128 6.399376s12.798752 0 19.198128-6.399376c6.399376 0 12.798752-6.399376 12.798752-12.798752 6.399376-6.399376 6.399376-12.798752 12.798752-12.798752 0-6.399376 6.399376-12.798752 6.399376-19.198128 0-6.399376 0-12.798752-6.399376-19.198128-6.399376 0-6.399376-6.399376-12.798752-12.798752z" fill="#707070" p-id="6472"></path><path d="M703.981282 51.294839C563.195008-19.098298 435.207487-19.098298 307.219966 64.093591 211.229325 134.486728 172.833069 300.870505 172.833069 320.068633s25.597504 51.195008-38.396257 95.990641-70.393137 31.99688-63.99376 63.993761c6.399376 19.198128 25.597504 31.99688 31.99688 44.795632s19.198128 25.597504 6.399376 38.396257c-12.798752 0-25.597504 6.399376-19.198128 25.597504 12.798752 25.597504 38.396256 25.597504 51.195008 25.597504 6.399376 0-25.597504-6.399376-38.396256 0-12.798752 6.399376-25.597504 25.597504-19.198128 38.396256 6.399376 12.798752 25.597504 12.798752 25.597504 19.198129 6.399376 6.399376 6.399376 19.198128 6.399376 25.597504 0 19.198128-12.798752 38.396256-19.198128 63.993761-6.399376 19.198128 6.399376 63.993761 51.195009 76.792512s63.993761 6.399376 102.390017 12.798752c63.993761 6.399376 108.789393 95.990641 115.188769 172.783154h134.386897c89.591265 0 179.18253-25.597504 255.975042-63.993761-38.396256-223.978162 83.191889-243.17629 147.18565-454.3557 19.198128-83.191889 57.594385-339.166931-198.380658-454.3557zM582.393137 377.663018c-6.399376 12.798752-12.798752 19.198128-12.798752 25.597504 0 6.399376 0 19.198128 6.399376 25.597504V448.056155l-6.399376 6.399376c-6.399376 0-6.399376 6.399376-12.798753 6.399376s-6.399376 6.399376-12.798752 6.399376H524.798752c-12.798752 0-12.798752-6.399376-12.798752-6.399376 0-12.798752-6.399376-19.198128-19.198128-25.597505-6.399376-6.399376-12.798752-6.399376-25.597504-6.399376-6.399376 0-19.198128 0-25.597505 6.399376-6.399376 6.399376-12.798752 12.798752-12.798752 25.597505 0 6.399376-6.399376 6.399376-6.399376 6.399376H403.210607c-12.798752 0-19.198128-6.399376-25.597504-6.399376s-12.798752-6.399376-12.798752-6.399376c0-6.399376-6.399376-6.399376-6.399376-6.399376v-6.399377s0-6.399376 6.399376-12.798752c0-6.399376 6.399376-12.798752 6.399376-25.597504 0-6.399376-6.399376-19.198128-12.798752-25.597504-12.798752 0-12.798752-6.399376-19.198129-6.399376H320.018718c-6.399376 0-12.798752 0-19.198128 6.399376h-12.798752l-6.399376-6.399376c0-6.399376-6.399376-6.399376-6.399376-12.798752s-6.399376-12.798752-6.399376-12.798752v-12.798753c0-6.399376 6.399376-12.798752 6.399376-12.798752 6.399376-6.399376 19.198128-6.399376 25.597504-19.198128 6.399376-6.399376 12.798752-19.198128 12.798752-25.597504 0-12.798752-6.399376-19.198128-12.798752-25.597504-6.399376-19.198128-19.198128-25.597504-25.597504-25.597505 0 0-6.399376 0-6.399376-6.399376v-12.798752V192.081112c0-6.399376 0-6.399376 6.399376-12.798752 0-6.399376 6.399376-6.399376 6.399376-12.798752s6.399376-6.399376 6.399376-6.399376h12.798752c6.399376 6.399376 19.198128 6.399376 25.597504 6.399376s19.198128-6.399376 25.597504-12.798752c6.399376-6.399376 6.399376-6.399376 6.399377-12.798752V128.087351v-12.798752V96.090471c0-6.399376 6.399376-6.399376 6.399376-12.798752 12.798752-6.399376 19.198128-12.798752 19.198128-12.798752 6.399376 0 12.798752-6.399376 12.798752-6.399376h12.798752c6.399376 0 6.399376 0 6.399376 6.399376l6.399376 6.399376c0 6.399376 6.399376 12.798752 12.798752 19.198128 12.798752 6.399376 25.597504 12.798752 31.996881 12.798752 12.798752 0 19.198128 0 25.597504-6.399376s12.798752-19.198128 19.198128-25.597504c0 0 0-6.399376 6.399376-6.399376 0-6.399376 6.399376-6.399376 6.399376-6.399376h12.798752c6.399376 0 6.399376 0 12.798752 6.399376 6.399376 0 6.399376 6.399376 12.798752 6.399376s6.399376 6.399376 6.399377 12.798752V128.087351c0 6.399376 6.399376 19.198128 12.798752 25.597505 6.399376 6.399376 12.798752 12.798752 25.597504 12.798752s19.198128 0 25.597504-6.399376h6.399376s6.399376 0 6.399376 6.399376c6.399376 6.399376 6.399376 12.798752 12.798752 19.198128 6.399376 6.399376 6.399376 19.198128 6.399376 25.597504v12.798752l-6.399376 6.399376c-6.399376 0-19.198128 6.399376-25.597504 19.198129-6.399376 12.798752-6.399376 6.399376-6.399376 19.198128s0 19.198128 6.399376 25.597504 12.798752 12.798752 19.198128 12.798752c0 0 6.399376 0 6.399376 6.399376 0 0 6.399376 6.399376 6.399376 12.798752v12.798752c0 6.399376 0 12.798752-6.399376 12.798753 0 6.399376-6.399376 12.798752-6.399376 12.798752 0 6.399376-6.399376 6.399376-6.399376 6.399376h-12.798752H595.191889c-6.399376 0-12.798752 6.399376-12.798752 6.399376z m211.17941 140.786273c0 6.399376 6.399376 6.399376 12.798752 6.399376l6.399376 6.399376v12.798752s0 6.399376-6.399376 6.399376l-6.399376 6.399377h-6.399376-25.597505s-6.399376 0-6.399376 6.399376c-6.399376 6.399376-6.399376 12.798752-6.399376 12.798752V595.241804l-6.399376 6.399376s-6.399376 0-6.399376 6.399376-6.399376 0-6.399376 0h-6.399376-6.399376v-6.399376c0-6.399376-6.399376-6.399376-6.399376-12.798752H703.981282c-6.399376 0-12.798752 0-12.798752 6.399376-6.399376 6.399376-6.399376 6.399376-6.399376 12.798752l-6.399376 6.399376H659.185649s-6.399376 0-6.399376-6.399376c0 0-6.399376 0-6.399376-6.399376v-12.798752V576.043676c0-6.399376 0-6.399376-6.399376-12.798752l-6.399376-6.399376h-25.597504s-6.399376 0-6.399376-6.399377c0 0 0-6.399376-6.399376-6.399376v-12.798752c0-6.399376 0-6.399376 6.399376-6.399376s6.399376-6.399376 12.798752-6.399376v-12.798752c0-6.399376 0-12.798752-6.399376-12.798752s-6.399376-6.399376-6.399376-12.798752l-6.399376-6.399376c-6.399376-6.399376 0-6.399376 0-6.399376v-12.798752s0-6.399376 6.399376-6.399376c0 0 0-6.399376 6.399376-6.399377h25.597504c0 6.399376 6.399376 6.399376 6.399376 0 0 0 0-6.399376 6.399376-6.399376V416.059274v-6.399376-6.399376s0-6.399376 6.399376-6.399376c0 0 6.399376 0 6.399376-6.399376H678.383778v6.399376c0 6.399376 6.399376 6.399376 6.399376 12.798752 6.399376 0 6.399376 6.399376 12.798752 6.399376s12.798752 0 12.798752-6.399376c6.399376 0 6.399376-6.399376 6.399376-12.798752v-6.399376H735.978162s6.399376 0 6.399376 6.399376l6.399376 6.399376V422.45865c0 6.399376 0 6.399376 6.399376 12.798752 12.798752 12.798752 12.798752 19.198128 19.198128 19.198129h25.597505s6.399376 6.399376 6.399376 12.798752 0 6.399376 6.399376 12.798752v6.399376h-6.399376c-6.399376 0-6.399376 6.399376-12.798752 6.399376-6.399376 6.399376-6.399376 6.399376-6.399376 12.798752s0 6.399376 6.399376 12.798752z" fill="#707070" p-id="6473"></path></svg>