<?xml version="1.0" standalone="no"?><!DOCTYPE svg PUBLIC "-//W3C//DTD SVG 1.1//EN" "http://www.w3.org/Graphics/SVG/1.1/DTD/svg11.dtd"><svg t="1581319283693" class="icon" viewBox="0 0 1024 1024" version="1.1" xmlns="http://www.w3.org/2000/svg" p-id="3903" xmlns:xlink="http://www.w3.org/1999/xlink" width="128" height="128"><defs><style type="text/css"></style></defs><path d="M921.6 153.6a51.2 51.2 0 0 0-51.2-51.2h-102.4a51.2 51.2 0 0 0-51.2 51.2v102.4a51.2 51.2 0 0 0 51.2 51.2h102.4a51.2 51.2 0 0 0 51.2-51.2V153.6z m102.4-51.2v204.8a102.4 102.4 0 0 1-102.4 102.4h-204.8a102.4 102.4 0 0 1-102.4-102.4V102.4a102.4 102.4 0 0 1 102.4-102.4h204.8a102.4 102.4 0 0 1 102.4 102.4zM307.2 768a51.2 51.2 0 0 0-51.2-51.2H153.6a51.2 51.2 0 0 0-51.2 51.2v102.4a51.2 51.2 0 0 0 51.2 51.2h102.4a51.2 51.2 0 0 0 51.2-51.2v-102.4z m102.4-51.2v204.8a102.4 102.4 0 0 1-102.4 102.4H102.4a102.4 102.4 0 0 1-102.4-102.4v-204.8a102.4 102.4 0 0 1 102.4-102.4h204.8a102.4 102.4 0 0 1 102.4 102.4z m102.4-563.2v102.4a51.2 51.2 0 0 1-102.4 0H307.2a51.2 51.2 0 0 0-51.2 51.2v102.4a51.2 51.2 0 0 1 0 102.4H153.6a51.2 51.2 0 0 1 0-102.4V256a102.4 102.4 0 0 1 102.4-102.4h153.6a51.2 51.2 0 0 1 102.4 0z" p-id="3904"></path></svg>