<?xml version="1.0" standalone="no"?><!DOCTYPE svg PUBLIC "-//W3C//DTD SVG 1.1//EN" "http://www.w3.org/Graphics/SVG/1.1/DTD/svg11.dtd"><svg t="1607414685483" class="icon" viewBox="0 0 1024 1024" version="1.1" xmlns="http://www.w3.org/2000/svg" p-id="6765" xmlns:xlink="http://www.w3.org/1999/xlink" width="32" height="32"><defs><style type="text/css"></style></defs><path d="M857.163561 310.658768h-86.2891v-172.580245c0-47.58262-38.705456-86.289099-86.287052-86.2891H339.413615c-47.583643 0-86.288076 38.70648-86.288076 86.2891v172.580245h-86.2891c-31.769501 0-57.52709 25.756566-57.527089 57.525043v373.920454c0 127.075956 103.030355 230.105288 230.104265 230.105289h345.173794c127.071863 0 230.103242-103.030355 230.103241-230.105289V368.183811c0-31.768477-25.786241-57.525043-57.527089-57.525043z m-546.511956-172.580245c0-15.840748 12.892609-28.76201 28.760986-28.76201h345.173794c15.839725 0 28.759963 12.921262 28.759963 28.76201v172.580245H310.651605v-172.580245z m546.511956 604.026765c0 95.166263-77.412959 172.578199-172.576152 172.578199H339.413615c-95.164216 0-172.577176-77.411936-172.577176-172.578199V368.183811h690.328145v373.921477z" p-id="6766"></path><path d="M512.00614 483.23799c-47.679834 0-86.301379 38.621545-86.301379 86.288076 0 37.52661 24.098813 69.127265 57.524019 81.00885v120.333406h57.54244V650.534916c33.425207-11.881585 57.525043-43.48224 57.525043-81.00885-0.001023-47.666531-38.652244-86.288076-86.290123-86.288076z" p-id="6767"></path></svg>