<?xml version="1.0" standalone="no"?><!DOCTYPE svg PUBLIC "-//W3C//DTD SVG 1.1//EN" "http://www.w3.org/Graphics/SVG/1.1/DTD/svg11.dtd"><svg t="1620282456803" class="icon" viewBox="0 0 1024 1024" version="1.1" xmlns="http://www.w3.org/2000/svg" p-id="7716" xmlns:xlink="http://www.w3.org/1999/xlink" width="48" height="48"><defs><style type="text/css"></style></defs><path d="M461.722663 91.020775V14.24512h76.217199v76.775655c180.6486 19.133212 317.567613 168.751045 317.591894 347.020134v289.159164l67.524699 115.989028a12.261767 12.261767 0 0 1-0.024281 12.431731 12.795943 12.795943 0 0 1-10.999169 6.215866H87.653801a12.795943 12.795943 0 0 1-10.999169-6.215866 12.261767 12.261767 0 0 1-0.024281-12.431731l67.524699-115.940466V438.040909c0-178.269089 136.943294-327.886922 317.567613-347.020134z m317.591895 656.138055V438.040909c0-151.463168-125.11858-274.226518-279.471155-274.226518S220.372248 286.577741 220.372248 438.040909v309.117921l-23.285216 39.893232h605.488461l-23.260935-39.893232zM347.409006 1009.75488v-73.449196h304.868794V1009.75488H347.409006z" p-id="7717" fill="#ffa500"></path></svg>