<?xml version="1.0" standalone="no"?><!DOCTYPE svg PUBLIC "-//W3C//DTD SVG 1.1//EN" "http://www.w3.org/Graphics/SVG/1.1/DTD/svg11.dtd"><svg t="1607414095657" class="icon" viewBox="0 0 1024 1024" version="1.1" xmlns="http://www.w3.org/2000/svg" p-id="2322" xmlns:xlink="http://www.w3.org/1999/xlink" width="32" height="32"><defs><style type="text/css"></style></defs><path d="M641.1 815.5c-9-4.7-19.3-5.5-29-2.5-53.8 17.1-111.3 19.3-166.4 6.5-56.5-13.2-108.3-42-149.5-83.3-59-59-91.5-137.5-91.5-221 0-35.8 6-70.9 17.7-104.2 11.2-31.9 27.6-61.6 48.6-88.3l142.4 142.4c14.8 14.8 38.9 14.8 53.7 0 14.8-14.8 14.8-38.9 0-53.7L272 216.3l-2.6-2.7-26.9 26.9c-37.1 37.1-65.8 80.3-85.3 128.5-18.9 46.6-28.4 95.7-28.5 146.2 0 50.4 9.6 99.6 28.5 146.2 19.6 48.2 48.3 91.5 85.3 128.5 51.3 51.3 115.6 87.1 186 103.6 29.2 6.8 59 10.2 88.7 10.2 39.9 0 79.7-6.1 117.9-18.3 20-6.3 31.1-27.8 24.7-47.7-3-9.6-9.7-17.5-18.7-22.2z" p-id="2323"></path><path d="M868.7 360.7c-19.6-48.2-48.3-91.5-85.3-128.5-51.3-51.3-115.6-87.1-186-103.6-68.4-16-139.8-13.2-206.7 8-20 6.3-31.1 27.8-24.7 47.7 3.1 9.7 9.7 17.6 18.7 22.2 9 4.7 19.3 5.5 29 2.5 53.8-17.1 111.3-19.3 166.4-6.5 56.5 13.2 108.3 42 149.5 83.3 59 59 91.5 137.5 91.5 221 0 35.8-6 70.9-17.7 104.2-11.2 31.9-27.6 61.6-48.6 88.3L612.5 556.9c-14.8-14.8-38.9-14.8-53.7 0-7.2 7.2-11.1 16.7-11.1 26.9s4 19.7 11.1 26.9l195.1 195.1 2.6 2.7 26.9-26.9c37.1-37.1 65.8-80.3 85.3-128.5 18.9-46.6 28.4-95.7 28.5-146.2 0-50.5-9.6-99.7-28.5-146.2z" p-id="2324"></path></svg>