<?xml version="1.0" standalone="no"?><!DOCTYPE svg PUBLIC "-//W3C//DTD SVG 1.1//EN" "http://www.w3.org/Graphics/SVG/1.1/DTD/svg11.dtd"><svg t="1626610305745" class="icon" viewBox="0 0 1024 1024" version="1.1" xmlns="http://www.w3.org/2000/svg" p-id="7615" xmlns:xlink="http://www.w3.org/1999/xlink" width="32" height="32"><defs><style type="text/css"></style></defs><path d="M857.8 505.3v283.2c0 76.5-62 138.5-138.5 138.5H303.8c-76.5 0-138.5-62-138.5-138.5V505.3C123.5 476.1 96 427.8 96 373l92.3-253.9h2.3C195.5 105.7 207.9 96 223 96h577c15 0 27.5 9.7 32.3 23.1h2.3L927 373c0 54.8-27.5 103.1-69.2 132.3zM234.5 788.5c0 38.2 31 69.3 69.3 69.3h415.5c38.2 0 69.3-31 69.3-69.3V532.3c-7.6 1.1-15.2 2.3-23.1 2.3-51.6 0-97.4-24.2-127-61.8-29.6 37.6-75.4 61.8-127 61.8s-97.4-24.2-127-61.8c-29.6 37.6-75.4 61.8-127 61.8-7.9 0-15.5-1.2-23.1-2.3v256.2h0.1z m547.7-623.2H240.8L165.3 373c0 51 41.3 92.3 92.3 92.3s92.3-41.3 92.3-92.3v-11.5c0-19.1 15.5-34.6 34.6-34.6s34.6 15.5 34.6 34.6V373c0 51 41.3 92.3 92.3 92.3s92.3-41.3 92.3-92.3v-11.5c0-19.1 15.5-34.6 34.6-34.6s34.6 15.5 34.6 34.6V373c0 51 41.3 92.3 92.3 92.3s92.3-41.3 92.3-92.3l-75.3-207.7z" p-id="7616" fill="#ffffff"></path></svg>