<?xml version="1.0" standalone="no"?><!DOCTYPE svg PUBLIC "-//W3C//DTD SVG 1.1//EN" "http://www.w3.org/Graphics/SVG/1.1/DTD/svg11.dtd"><svg t="1626608357885" class="icon" viewBox="0 0 1024 1024" version="1.1" xmlns="http://www.w3.org/2000/svg" p-id="4717" xmlns:xlink="http://www.w3.org/1999/xlink" width="32" height="32"><defs><style type="text/css"></style></defs><path d="M771.2 64.9H246.7c-31.9 0-58 26.1-58 58v777.9c0 31.9 26.1 58 58 58h524.5c31.9 0 58-26.1 58-58V122.9c0-31.9-26.1-58-58-58z m-6 64v634.2H252.7V128.9h512.5zM252.7 894.7v-67.6h512.5v67.6H252.7z" fill="#ffffff" p-id="4718"></path><path d="M349.1 575.3c17.9 0 32.5-14.6 32.5-32.5v-96c0-17.9-14.6-32.5-32.5-32.5s-32.5 14.6-32.5 32.5v96c0 17.9 14.6 32.5 32.5 32.5zM670.1 448.2c17.9 0 32.5-14.6 32.5-32.5v-96c0-17.9-14.6-32.5-32.5-32.5s-32.5 14.6-32.5 32.5v96c0 17.9 14.6 32.5 32.5 32.5zM509.8 575.6c18 0 32.7-14.7 32.7-32.7V318.2c0-18-14.7-32.7-32.7-32.7-18 0-32.7 14.7-32.7 32.7v224.7c0 18 14.7 32.7 32.7 32.7z" fill="#ffffff" p-id="4719"></path></svg>