<?xml version="1.0" encoding="UTF-8"?>
<svg width="344px" height="349px" viewBox="0 0 344 349" version="1.1" xmlns="http://www.w3.org/2000/svg" xmlns:xlink="http://www.w3.org/1999/xlink">
    <title>权限</title>
    <desc>Created NO PERMISSION.</desc>
    <defs>
        <path d="M66.5212694,-2.13162821e-14 C64.9400412,4.56727643e-14 52.8479768,2.69250653 30.2450764,8.07751958 L8.52651283e-14,59.1378615 L32.848251,70.3825444 C56.8781581,23.4608481 68.1024976,-8.50494817e-14 66.5212694,-2.13162821e-14 Z" id="path-1"></path>
        <path d="M80.4282079,-4.26325641e-14 C89.6839398,21.9334504 94.3118057,36.3600781 94.3118057,43.2798829 C94.3118057,53.6595903 87.1643197,61.6562453 80.4282079,61.6562453 C75.9374666,61.6562453 62.2091925,61.5856204 39.2433854,61.4443708 L46.0003561,96.8772684 L-7.81597009e-14,96.8772684 L12.5121659,36.9227656 C29.8666633,26.7445836 46.3534358,22.2321431 61.9724834,23.3854439 C77.591531,24.5387447 83.7434392,16.7435967 80.4282079,-4.26325641e-14 Z" id="path-3"></path>
        <polygon id="path-5" points="0 0.107179923 22.0397344 0.107179923 17.4481231 19.1777966 4.63994409 19.1777966"></polygon>
    </defs>
    <g id="页面-1" stroke="none" stroke-width="1" fill="none" fill-rule="evenodd">
        <g id="权限">
            <path d="M151.795207,176.5 C151.448218,176.5 151.334961,176.998107 151.766788,177.880145 L166.845831,208.680145 C167.337994,209.685422 168.32081,210.5 168.930483,210.5 L188.001481,210.5 C188.34847,210.5 188.461727,210.001893 188.029899,209.119855 L172.950857,178.319855 C172.458694,177.314578 171.475878,176.5 170.866205,176.5 L151.795207,176.5 Z" id="矩形" stroke="#13161A" fill="#EEEEEE"></path>
            <g id="分组-12" transform="translate(50.000000, 102.000000)">
                <g id="分组-5" transform="translate(130.000000, 0.000000)">
                    <g id="分组-9-copy" transform="translate(0.000000, 8.645740)">
                        <rect id="矩形" fill="#13161A" x="72.8888889" y="146.180878" width="91.1111111" height="4.32487805"></rect>
                        <polygon id="路径-9-copy-8" fill="#FFC1C7" transform="translate(42.060677, 184.128713) rotate(4.000000) translate(-42.060677, -184.128713) " points="46.2349274 150.106042 20.3549921 206.548946 38.9636624 218.927681 63.7663614 149.329745"></polygon>
                        <path d="M-1.72115913,216.887246 C10.9959452,216.907028 23.7130495,216.92681 36.4301538,216.946593" id="路径-17-copy-6" stroke="#13161A" transform="translate(17.354497, 216.916919) rotate(29.000000) translate(-17.354497, -216.916919) "></path>
                        <path d="M15.7076763,204.958136 C21.4879201,205.158856 29.5806545,205.147976 39.9858794,204.925495 L39.9698764,216.808436 L1.81841442,216.859729 C4.67738272,210.562147 9.30713669,206.594949 15.7076763,204.958136 Z" id="矩形-copy-7" fill="#17B3A3" transform="translate(20.902147, 210.892612) rotate(29.000000) translate(-20.902147, -210.892612) "></path>
                        <path d="M18.1924356,208.136179 C26.3315981,208.196752 34.4707606,208.257325 42.6099231,208.317897" id="路径-16-copy-6" stroke="#13161A" transform="translate(30.401179, 208.227038) rotate(29.000000) translate(-30.401179, -208.227038) "></path>
                        <polygon id="路径-9-copy-7" fill="#FFC1C7" transform="translate(66.119710, 188.156458) rotate(-16.000000) translate(-66.119710, -188.156458) " points="70.2634268 154.120652 44.4493299 210.548892 63.0669738 222.950154 87.7900896 153.362762"></polygon>
                        <path d="M35.0685334,227.333299 C47.7941599,227.363924 60.5197865,227.39455 73.245413,227.425175" id="路径-17-copy-5" stroke="#13161A" transform="translate(54.156973, 227.379237) rotate(9.000000) translate(-54.156973, -227.379237) "></path>
                        <path d="M50.2206601,214.573769 C56.0049417,214.779289 64.1030792,214.775324 74.5150726,214.561875 L74.5092413,226.436868 L36.3323074,226.455559 C39.1877914,220.164622 43.8172423,216.204025 50.2206601,214.573769 Z" id="矩形-copy-6" fill="#17B3A3" transform="translate(55.423690, 220.508717) rotate(9.000000) translate(-55.423690, -220.508717) "></path>
                        <path d="M51.2182961,214.664109 C59.362954,214.73159 67.5076119,214.79907 75.6522698,214.86655" id="路径-16-copy-5" stroke="#13161A" transform="translate(63.435283, 214.765330) rotate(9.000000) translate(-63.435283, -214.765330) "></path>
                        <g id="椭圆形" transform="translate(19.662954, 110.397358)">
                            <mask id="mask-2" fill="white">
                                <use xlink:href="#path-1"></use>
                            </mask>
                            <use id="Mask" fill="#17B3A3" xlink:href="#path-1"></use>
                            <ellipse fill="#FFC82C" mask="url(#mask-2)" cx="31.0989509" cy="10.2667395" rx="6.50793651" ry="6.48731708"></ellipse>
                        </g>
                        <g id="椭圆形" transform="translate(46.940838, 84.736507)">
                            <mask id="mask-4" fill="white">
                                <use xlink:href="#path-3"></use>
                            </mask>
                            <use id="Mask" fill="#17B3A3" xlink:href="#path-3"></use>
                            <ellipse fill="#FFC82C" mask="url(#mask-4)" cx="16.4030775" cy="38.0900293" rx="6.94179894" ry="6.91980489"></ellipse>
                        </g>
                        <path d="M39.5606021,95.9976401 C29.7263698,91.1874908 24.812256,91.1813526 24.8182608,95.9792253 C24.8242656,100.777098 29.2966399,104.776234 38.2353836,107.976632 L39.5606021,95.9976401 Z" id="路径-12-copy-7" fill="#FFC1C7" transform="translate(32.189429, 100.181025) rotate(-26.000000) translate(-32.189429, -100.181025) "></path>
                        <path d="M35.8394121,90.6945984 C36.047056,95.8888513 36.2546999,101.083104 36.4623438,106.277357" id="路径-20-copy-5" stroke="#13161A" transform="translate(36.150878, 98.485978) rotate(-30.000000) translate(-36.150878, -98.485978) "></path>
                        <path d="M85.4480472,44.9476294 C83.3142508,46.4512985 81.6688693,49.2241976 80.5119028,53.2663266 C79.3549363,57.3084555 76.0954444,77.6119402 70.733427,114.176781 L138.231115,108.624766 C133.720759,96.6042841 130.153487,85.3317285 127.529298,74.8070988 C123.593014,59.0201543 121.929194,44.9476294 114.11967,41.9669489 C108.913321,39.9798286 102.62784,39.8290802 95.2632256,41.5147038 L85.4480472,44.9476294 Z" id="路径-4-copy" fill="#FFC82C"></path>
                        <path d="M83.7046606,65.9850598 C82.3455664,80.40132 80.9864721,94.8175802 79.6273779,109.23384" id="路径-46" stroke="#13161A"></path>
                        <polygon id="路径-37" fill="#FFC82C" points="81.3796277 52.7324099 66.6283049 90.7913367 31.9193102 90.7913367 45.8029081 112.415727 75.210317 105.377814"></polygon>
                        <path d="M96.2586292,106.645833 C86.4256044,101.833587 81.5123916,101.826841 81.5189908,106.625595 C81.5255901,111.424349 86.5741553,115.538073 96.6646866,118.966766 L96.2586292,106.645833 Z" id="路径-12-copy-5" fill="#FFC1C7" transform="translate(89.091835, 110.999174) rotate(-30.000000) translate(-89.091835, -110.999174) "></path>
                        <path d="M92.637225,102.926295 C92.8398709,108.116471 93.0425169,113.306646 93.2451628,118.496822" id="路径-20-copy-4" stroke="#13161A" transform="translate(92.941194, 110.711559) rotate(-7.000000) translate(-92.941194, -110.711559) "></path>
                        <path d="M115.85512,42.4880724 C122.961351,47.8071487 127.878459,54.4038726 130.606443,62.278244 C133.334427,70.1526154 135.875985,85.2124235 138.231115,107.457668 L95.0841736,120.200507 L91.9227565,95.9811904 L119.036133,93.3862636 C114.071763,69.646497 111.645794,55.2406042 111.758225,50.1685854 C111.870656,45.0965666 113.236288,42.5363956 115.85512,42.4880724 Z" id="路径-38" fill="#FFC82C"></path>
                        <polyline id="路径-47" stroke="#13161A" points="112.652719 64.0081952 114.11967 91.4556196 98.5006228 100.177411"></polyline>
                        <g id="分组-6" transform="translate(82.013850, 0.000000)">
                            <path d="M23.624766,41.0975398 C23.6372825,41.2380043 23.6436747,41.3802243 23.6436747,41.5239324 C23.6436747,44.151353 21.5069596,46.2812983 18.8711879,46.2812983 C16.2354162,46.2812983 14.0987011,44.151353 14.0987011,41.5239324 C14.0987011,41.3802243 14.1050933,41.2380043 14.1176098,41.0975398 C14.1051436,41.0072757 14.0987011,40.9150882 14.0987011,40.8213958 L14.0987011,35.3066641 C14.0987011,34.2020946 14.9941316,33.3066641 16.0987011,33.3066641 L21.6436747,33.3066641 C22.7482442,33.3066641 23.6436747,34.2020946 23.6436747,35.3066641 L23.6436747,40.8213958 C23.6436747,40.9150882 23.6372322,41.0072757 23.624766,41.0975398 Z" id="合并形状-copy-6" fill="#FFC1C7" transform="translate(18.871188, 39.793981) rotate(10.000000) translate(-18.871188, -39.793981) "></path>
                            <path d="M13.6746927,43.9187475 C18.6133604,45.9686301 22.0525675,47.8861273 23.2196663,41.5573977" id="路径-11-copy-3" stroke="#13161A"></path>
                            <g id="分组-5-copy-3" transform="translate(21.427753, 21.575474) rotate(10.000000) translate(-21.427753, -21.575474) translate(3.427753, 3.575474)" fill-rule="nonzero">
                                <ellipse id="椭圆形" fill="#2F2E41" cx="18.3463069" cy="17.3090269" rx="17.3640423" ry="17.3090269"></ellipse>
                                <ellipse id="椭圆形" fill="#FFC1C7" cx="15.6277249" cy="19.5311493" rx="15.6277249" ry="15.5782107"></ellipse>
                                <path d="M27.4313997,28.697116 C20.8766493,35.2310987 10.3290623,35.4804962 3.47089947,29.2636616 C7.77683016,33.9837394 14.3383991,35.9599803 20.5458931,34.40638 C25.1336338,33.2581685 28.9781867,30.3194977 31.3013443,26.3661093 C32.1215611,24.9703213 32.7521327,23.4480464 33.1588101,21.8334251 C34.7173484,15.6455987 32.7348262,9.10481905 27.999746,4.81253107 C34.2363403,11.6489648 33.9861501,22.1631334 27.4313997,28.697116 Z" id="路径" fill="#000000" opacity="0.1"></path>
                            </g>
                            <g id="分组-4-copy-4" transform="translate(23.342162, 18.316916) rotate(10.000000) translate(-23.342162, -18.316916) translate(9.842162, 3.816916)" fill="#2F2E41" fill-rule="nonzero">
                                <path d="M8.91484029,22.8574491 C9.15949024,22.514113 9.3955975,22.1263267 9.61092861,21.7050546 C10.5542966,19.8594567 10.7416686,18.070047 10.0294357,17.708296 C9.31720283,17.346545 7.97507314,18.5494405 7.03170515,20.3950384 C7.01717551,20.423464 7.00282521,20.4518764 6.98865476,20.4802704 C2.12864129,17.9946097 -0.572713487,11.9673961 0.102525584,7.35665885 C0.79987773,2.59492683 8.55950995,1.57127227 12.1481481,0.357450634 C15.7367863,-0.856371006 17.1439579,3.73162967 22.3065544,6.05482928 C27.4691509,8.37802888 26.7563584,18.6867865 25.8580289,22.2729664 C24.9596994,25.8591463 23.3607243,27.8629842 20.8720894,28.0565421 C18.7594646,28.2208553 12.2572342,26.5226487 8.91484029,22.8574491 Z" id="合并形状"></path>
                            </g>
                            <path d="" id="路径-24-copy-3" stroke="#979797"></path>
                        </g>
                        <path d="M59.7379134,120.23161 L46.9408378,181.613776" id="路径-31" stroke="#13161A"></path>
                    </g>
                    <g id="分组-4-copy-4" transform="translate(127.278979, 18.713822) rotate(10.000000) translate(-127.278979, -18.713822) translate(111.778979, 2.713822)" fill-rule="nonzero">
                        <g id="分组-3" transform="translate(0.068463, 0.000000)">
                            <g id="分组-2">
                                <ellipse id="椭圆形" fill="#2F2E41" cx="14.4473875" cy="15.0288843" rx="12.1550899" ry="12.1436259"></ellipse>
                                <g id="分组">
                                    <path d="M2.3374192,14.1611109 C2.31746153,14.4489239 2.29316524,14.7358699 2.29316524,15.0280174 C2.34954576,21.6944847 7.77482244,27.0690412 14.4478213,27.0690412 C21.1208202,27.0690412 26.5460969,21.6944847 26.6024774,15.0280174 C26.6024774,14.735003 26.5790488,14.448057 26.5582234,14.1611109 C26.1062465,20.5113637 20.8196833,25.4334439 14.4473875,25.4369634 C8.07595933,25.4334439 2.78939614,20.5113637 2.3374192,14.1611109 Z" id="路径" fill="#000000" opacity="0.1"></path>
                                    <path d="M1.71439275,12.7159778 C1.70137067,8.95562687 3.43885333,5.40291515 6.41608253,3.10221374 C9.39331173,0.801512336 13.271917,0.0143024453 16.9117261,0.971995821 C12.7209729,-0.812510328 7.88311954,-0.104620546 4.38060922,2.80558791 C0.878098894,5.71579637 -0.700303138,10.339123 0.292196648,14.781033 C1.28469643,19.2229429 4.68126072,22.7367595 9.09005412,23.8826001 C4.61594334,21.9707996 1.71416136,17.5775524 1.71439275,12.7159778 Z" id="路径" fill="#2F2E41"></path>
                                    <path d="M16.5976097,24.3411937 C13.8269773,21.795914 12.3981568,18.1084759 12.7311698,14.3628531 C13.0641829,10.6172302 15.1211816,7.23912238 18.2974827,5.22157136 C14.1379468,7.08014497 11.3692307,11.107923 11.1263481,15.6537489 C10.8834655,20.1995748 13.2072645,24.4989319 17.1451216,26.7893318 C21.0829787,29.0797318 25.9726253,28.9759753 29.8095885,26.5205965 C25.3659233,28.5014374 20.1680537,27.6440146 16.5976097,24.3411937 L16.5976097,24.3411937 Z" id="路径" fill="#2F2E41"></path>
                                </g>
                                <path d="M12.6850383,23.392798 C11.5307023,19.813566 12.1074794,15.9016047 14.2458126,12.8069265 C16.3841457,9.71224829 19.8409989,7.78658422 23.6001494,7.5960282 C19.0648691,7.16562182 14.6697659,9.30646405 12.2159644,13.1412322 C9.76216297,16.9760003 9.66217324,21.8600292 11.9569713,25.7918312 C14.2517694,29.7236331 18.5555754,32.0422306 23.1046785,31.7974563 C18.2612263,31.3319211 14.1622929,28.0257177 12.685906,23.3936649 L12.6850383,23.392798 Z" id="路径" fill="#2F2E41"></path>
                            </g>
                        </g>
                    </g>
                </g>
                <g id="分组-8-copy" transform="translate(0.000000, 81.000000)">
                    <polygon id="路径-42" stroke="#13161A" fill="#13161A" points="181.674419 35.9333333 181.674419 49 279 49 279 35.9333333"></polygon>
                    <polygon id="路径-43" stroke="#13161A" fill="#FFFFFF" points="0 35.9333333 0 49 181.674419 49 181.674419 35.9333333"></polygon>
                    <polygon id="路径-45" stroke="#13161A" fill="#17B3A3" points="142.744186 31.5777778 142.744186 35.9333333 183.837209 35.9333333 183.837209 31.5777778"></polygon>
                    <polygon id="路径-44" stroke="#13161A" fill="#FFFFFF" points="95.1627907 0 110.871481 35.9333333 144.906977 35.9333333 129.198286 0"></polygon>
                    <g id="分组-7" transform="translate(109.220930, 14.155556)">
                        <ellipse id="椭圆形" fill="#17B3A3" cx="2.18372559" cy="2.03768681" rx="2.18372559" ry="2.03768681"></ellipse>
                        <ellipse id="椭圆形-copy-9" fill="#FFC82C" cx="10.9186279" cy="2.03768681" rx="2.18372559" ry="2.03768681"></ellipse>
                        <ellipse id="椭圆形-copy-10" fill="#13CE66" cx="18.7800401" cy="2.03768681" rx="2.18372559" ry="2.03768681"></ellipse>
                    </g>
                </g>
                <g id="分组-10-copy" transform="translate(12.000000, 67.000000)">
                    <polygon id="矩形-copy-5" fill="#54B6FF" points="8.68571429 0 17.3714286 7 17.3714286 49 8.68571429 49"></polygon>
                    <polygon id="矩形-copy-8" fill="#FFDD7B" points="18.4571429 0 27.1428571 7 27.1428571 49 18.4571429 49"></polygon>
                    <polygon id="矩形-copy-10" fill="#4FF297" points="29.3142857 0 38 7 38 49 29.3142857 49"></polygon>
                    <rect id="矩形" fill="#17B3A3" x="0" y="0" width="8.68571429" height="49"></rect>
                    <rect id="矩形-copy-9" fill="#FFC82C" x="10.8571429" y="0" width="8.68571429" height="49"></rect>
                    <rect id="矩形-copy-11" fill="#13CE66" x="20.6285714" y="0" width="8.68571429" height="49"></rect>
                </g>
                <g id="分组-9-copy" transform="translate(52.000000, 70.000000)">
                    <path d="M9.03802293,22.3315678 C12.2029703,18.5336538 13.778048,15.6873843 13.763256,13.7927593 C13.741068,10.9508219 11.577544,8.63018854 8.93088989,8.60947976 C6.28423576,8.58877098 4.15668557,10.8758287 4.17887355,13.7177662 C4.19366554,15.6123912 5.813382,18.4836584 9.03802293,22.3315678 Z" id="椭圆形-copy-11" fill="#1FA85C" transform="translate(8.971030, 15.470454) rotate(-49.000000) translate(-8.971030, -15.470454) "></path>
                    <path d="M23.5049019,16.896427 C26.8996983,16.9205931 29.632134,14.1690475 29.6079679,10.7506779 C29.5838019,7.33230833 26.8121851,4.54158176 23.4173887,4.51741567 C21.1541911,4.50130494 17.576618,6.74784563 12.6846693,11.2570377 C17.6349601,15.0005199 21.2417042,16.8803163 23.5049019,16.896427 Z" id="椭圆形" fill="#28B968" transform="translate(21.146398, 10.706957) rotate(-58.000000) translate(-21.146398, -10.706957) "></path>
                    <path d="M14.9655172,36 C20.6666667,29.0249403 23.5172414,24.0613039 23.5172414,21.1090909 C23.5172414,16.6807714 19.6885041,13.0909091 14.9655172,13.0909091 C10.2425304,13.0909091 6.4137931,16.6807714 6.4137931,21.1090909 C6.4137931,24.0613039 9.26436782,29.0249403 14.9655172,36 Z" id="椭圆形" fill="#13CE66"></path>
                    <g id="路径-2" transform="translate(4.275862, 27.272727)">
                        <mask id="mask-6" fill="white">
                            <use xlink:href="#path-5"></use>
                        </mask>
                        <use id="Mask" fill="#7C868D" xlink:href="#path-5"></use>
                        <polygon fill="#4D5761" mask="url(#mask-6)" points="17.3146282 -1.3621869 17.3146282 20.4328036 25.5795286 6.81093452 24.2020452 0.107179923"></polygon>
                    </g>
                </g>
            </g>
            <g id="分组-8" transform="translate(0.000000, 264.000000)" fill="#D4FBF7">
                <rect id="矩形" x="0" y="0" width="39.757764" height="13.8666667" rx="6.93333333"></rect>
                <path d="M109.251449,51.2 C112.786072,51.2 115.651449,48.3346224 115.651449,44.8 C115.651449,41.2653776 112.786072,38.4 109.251449,38.4 L84.4059063,38.4 C80.8712839,38.4 78.0059063,35.5346224 78.0059063,32 C78.0059063,28.4653776 80.8712839,25.6 84.4059063,25.6 L92.9150337,25.6 C96.4496561,25.6 99.3150337,22.7346224 99.3150337,19.2 C99.3150337,15.6653776 96.4496561,12.8 92.9150337,12.8 L63.6799223,12.8 C60.1452999,12.8 57.2799223,9.9346224 57.2799223,6.4 C57.2799223,2.8653776 60.1452999,6.49299601e-16 63.6799223,0 L166.6,3.55271368e-15 C170.134622,2.90341408e-15 173,2.8653776 173,6.4 C173,9.9346224 170.134622,12.8 166.6,12.8 L133.910558,12.8 C130.375935,12.8 127.510558,15.6653776 127.510558,19.2 C127.510558,22.7346224 130.375935,25.6 133.910558,25.6 L166.6,25.6 C170.134622,25.6 173,28.4653776 173,32 C173,35.5346224 170.134622,38.4 166.6,38.4 L141.574949,38.4 C138.040327,38.4 135.174949,41.2653776 135.174949,44.8 C135.174949,48.3346224 138.040327,51.2 141.574949,51.2 L166.6,51.2 C170.134622,51.2 173,54.0653776 173,57.6 C173,61.1346224 170.134622,64 166.6,64 L38.6360248,64 C35.1014024,64 32.2360248,61.1346224 32.2360248,57.6 C32.2360248,54.0653776 35.1014024,51.2 38.6360248,51.2 L109.251449,51.2 Z" id="合并形状"></path>
            </g>
            <g id="分组-9" transform="translate(107.000000, 125.000000)">
                <path d="M6,3 L38,3 C39.6568542,3 41,4.34314575 41,6 L41,32.3538311 C41,34.0106854 39.6568542,35.3538311 38,35.3538311 L35,35.3538311 L35,41.3538311 L25.3155965,35.3538311 L6,35.3538311 C4.34314575,35.3538311 3,34.0106854 3,32.3538311 L3,6 C3,4.34314575 4.34314575,3 6,3 Z" id="矩形" fill="#FFC82C"></path>
                <path d="M31.5,37.4558698 L31.5,31.8538311 L35,31.8538311 C36.3807119,31.8538311 37.5,30.734543 37.5,29.3538311 L37.5,3 C37.5,1.61928813 36.3807119,0.5 35,0.5 L3,0.5 C1.61928813,0.5 0.5,1.61928813 0.5,3 L0.5,29.3538311 C0.5,30.734543 1.61928813,31.8538311 3,31.8538311 L22.4579328,31.8538311 L31.5,37.4558698 Z" id="矩形-copy-44" stroke="#13161A"></path>
                <g id="锁定-2" transform="translate(13.000000, 11.000000)" fill="#FFFFFF" fill-rule="nonzero">
                    <g id="锁定">
                        <path d="M4.36229948,6.40339703 L2.17245991,6.40339703 L2.17245991,3.90658175 C2.17245991,3.36305734 2.28253121,2.85633405 2.5026738,2.38641189 C2.7228164,1.91648974 3.02696079,1.50318471 3.41510696,1.14649681 C3.80325314,0.789808919 4.26091802,0.50955414 4.78810161,0.305732477 C5.31528521,0.101910815 5.89171123,-1.10690904e-08 6.51737969,0 C7.07352942,0 7.60940286,0.101910826 8.12500001,0.305732477 C8.64059716,0.509554128 9.09826205,0.789808907 9.49799466,1.14649681 C9.89772728,1.50318472 10.2163547,1.91648975 10.453877,2.38641189 C10.6913993,2.85633404 10.8101604,3.36305733 10.8101604,3.90658175 L10.8101604,6.40339703 L8.70721926,6.40339703 L8.70721926,4.3821656 C8.70721926,3.66878981 8.50445633,3.11677283 8.09893048,2.72611465 C7.69340464,2.33545646 7.14304813,2.14012738 6.44786097,2.14012739 C5.82219253,2.14012739 5.31818183,2.33545647 4.93582889,2.72611465 C4.55347595,3.11677282 4.36229948,3.6687898 4.36229948,4.3821656 L4.36229948,6.40339703 Z M11.8529412,7.4225053 C12.1657754,7.4225053 12.4351604,7.5329087 12.6610963,7.7537155 C12.8870321,7.97452229 13,8.23779193 13,8.54352442 L13,13.8089172 C13,14.1146497 12.9449643,14.4005662 12.834893,14.6666667 C12.7248217,14.9327672 12.5741979,15.1648974 12.3830214,15.3630573 C12.1918449,15.5612173 11.9659091,15.7169144 11.7052139,15.8301486 C11.4445187,15.9433829 11.157754,16 10.8449198,16 L2.06818182,16 C1.75534759,16 1.4714795,15.9433829 1.21657754,15.8301486 C0.961675589,15.7169144 0.744429603,15.566879 0.564839584,15.3800425 C0.385249565,15.1932059 0.246212129,14.97523 0.147727278,14.7261147 C0.0492424259,14.4769993 0,14.2108988 0,13.9278132 L0,8.54352444 C0,8.23779195 0.110071299,7.97452231 0.330213896,7.75371551 C0.550356493,7.53290872 0.816844905,7.42250532 1.12967913,7.42250532 L2.17245987,7.42250532 L4.36229944,7.42250532 L8.70721922,7.42250532 L10.8101604,7.42250532 L11.8529411,7.42250532 L11.8529412,7.4225053 Z" id="形状"></path>
                    </g>
                </g>
            </g>
            <path d="M140.5,218.5 L167.5,218.5 L167.5,176.5 L145,176.5 C142.514719,176.5 140.5,178.514719 140.5,181 L140.5,218.5 Z" id="矩形" stroke="#13161A" fill="#FFFFFF"></path>
            <path d="M162.5,336.5 L162.5,213.5 L140,213.5 C137.514719,213.5 135.5,215.514719 135.5,218 L135.5,332 C135.5,334.485281 137.514719,336.5 140,336.5 L162.5,336.5 Z" id="矩形-copy-2" stroke="#13161A" fill="#FFFFFF"></path>
            <path d="M156.5,348.5 L156.5,326.5 L134,326.5 C131.514719,326.5 129.5,328.514719 129.5,331 L129.5,344 C129.5,346.485281 131.514719,348.5 134,348.5 L156.5,348.5 Z" id="矩形-copy-13" stroke="#13161A" fill="#FFFFFF"></path>
            <path d="M166.5,218.5 L169.5,218.5 C171.156854,218.5 172.5,217.156854 172.5,215.5 L172.5,179.5 C172.5,177.843146 171.156854,176.5 169.5,176.5 C167.843146,176.5 166.5,177.843146 166.5,179.5 L166.5,218.5 Z" id="矩形" stroke="#13161A" fill="#EEEEEE"></path>
            <path d="M160.5,336.5 L163.5,336.5 C165.156854,336.5 166.5,335.156854 166.5,333.5 L166.5,213.5 L163.5,213.5 C161.843146,213.5 160.5,214.843146 160.5,216.5 L160.5,336.5 Z" id="矩形-copy-12" stroke="#13161A" fill="#EEEEEE"></path>
            <path d="M154.5,348.5 L157.5,348.5 C159.193086,348.5 160.5,347.729256 160.5,346.935897 L160.5,328.064103 C160.5,327.270744 159.193086,326.5 157.5,326.5 C156.238959,326.5 154.5,329.547073 154.5,331.009287 L154.5,348.5 Z" id="路径" stroke="#13161A" fill="#EEEEEE"></path>
            <path d="M146,183 L156,183" id="路径-121" stroke="#13161A"></path>
            <path d="M140,219.5 L150,219.5" id="路径-121-copy-4" stroke="#13161A"></path>
            <path d="M140,254.5 L150,254.5" id="路径-121-copy-8" stroke="#13161A"></path>
            <path d="M140,295.5 L150,295.5" id="路径-121-copy-12" stroke="#13161A"></path>
            <path d="M146,189.5 L156,189.5" id="路径-121-copy" stroke="#13161A"></path>
            <path d="M140,226 L150,226" id="路径-121-copy-5" stroke="#13161A"></path>
            <path d="M140,261 L150,261" id="路径-121-copy-9" stroke="#13161A"></path>
            <path d="M140,302 L150,302" id="路径-121-copy-13" stroke="#13161A"></path>
            <path d="M134,335.5 L144,335.5" id="路径-121-copy-16" stroke="#13161A"></path>
            <path d="M146,196.5 L162,196.5" id="路径-121-copy-2" stroke="#13161A"></path>
            <path d="M140,233 L156,233" id="路径-121-copy-6" stroke="#13161A"></path>
            <path d="M140,268 L156,268" id="路径-121-copy-10" stroke="#13161A"></path>
            <path d="M140,309 L156,309" id="路径-121-copy-14" stroke="#13161A"></path>
            <path d="M134,342.5 L150,342.5" id="路径-121-copy-17" stroke="#13161A"></path>
            <path d="M146,203.5 L162,203.5" id="路径-121-copy-3" stroke="#13161A"></path>
            <path d="M140,240 L156,240" id="路径-121-copy-7" stroke="#13161A"></path>
            <path d="M140,275 L156,275" id="路径-121-copy-11" stroke="#13161A"></path>
            <path d="M140,316 L156,316" id="路径-121-copy-15" stroke="#13161A"></path>
        </g>
    </g>
</svg>