<?xml version="1.0" standalone="no"?><!DOCTYPE svg PUBLIC "-//W3C//DTD SVG 1.1//EN" "http://www.w3.org/Graphics/SVG/1.1/DTD/svg11.dtd"><svg class="icon" width="200px" height="200.00px" viewBox="0 0 1024 1024" version="1.1" xmlns="http://www.w3.org/2000/svg"><path fill="#333333" d="M612.864 829.952c-33.28 0-67.584-5.12-98.304-14.848-72.704-22.528-121.856-66.048-151.04-98.304l30.72-27.136c25.088 28.672 68.608 66.56 132.096 86.528 27.136 8.704 56.832 12.8 86.016 12.8 75.776 0 136.192-29.696 173.568-54.784l22.528 34.304c-41.472 28.16-109.568 61.44-195.584 61.44z"  /><path fill="#333333" d="M514.56 906.752c-92.16 0-181.76-32.256-252.416-90.624l-3.584-3.072 25.6-31.744 3.584 3.072c63.488 52.736 143.872 81.408 226.304 81.408 188.928 0 354.816-165.888 354.816-354.816 0-195.584-159.232-354.816-354.816-354.816S159.744 315.392 159.744 510.976c0 15.36 1.024 31.232 3.072 46.592l-40.448 5.12c-2.048-16.896-3.584-34.304-3.584-51.712 0-218.112 177.664-395.776 395.776-395.776s395.776 177.664 395.776 395.776c0 104.448-43.008 203.776-120.832 280.064-74.752 73.728-175.104 115.712-274.944 115.712z"  /><path fill="#333333" d="M498.176 327.168c-88.064 0-169.984-43.52-219.648-116.736l33.792-23.04c41.984 61.952 111.104 98.816 185.344 98.816 78.336 0 149.504-39.936 190.464-105.984l34.816 21.504c-48.128 78.336-132.096 125.44-224.768 125.44zM146.18624 457.92768l0.12288-40.96 725.504 2.23232-0.12288 40.96z"  /><path fill="#333333" d="M753.664 695.808l-39.936-9.216c10.24-44.544 15.36-91.648 15.36-139.776 0-104.448-24.064-202.24-68.096-275.456-41.984-70.144-96.256-108.544-153.088-108.544-115.712 0-212.992 157.184-220.672 357.888l-40.96-1.536c4.096-105.984 32.256-204.288 78.848-278.016 48.64-76.8 113.664-119.296 182.784-119.296 72.192 0 138.752 45.568 188.416 128.512 47.616 79.36 73.728 184.832 73.728 296.448 0 51.712-5.632 101.376-16.384 148.992z"  /><path fill="#333333" d="M477.696 156.16h40.96v395.264h-40.96zM171.52 934.4L155.648 604.16l347.136 13.312-122.368 117.248-28.16-29.696 52.736-50.688-205.824-7.68 9.216 196.096 70.144-67.072 28.16 29.184z"  /></svg>