<?xml version="1.0" standalone="no"?><!DOCTYPE svg PUBLIC "-//W3C//DTD SVG 1.1//EN" "http://www.w3.org/Graphics/SVG/1.1/DTD/svg11.dtd"><svg t="1626610416727" class="icon" viewBox="0 0 1024 1024" version="1.1" xmlns="http://www.w3.org/2000/svg" p-id="9129" xmlns:xlink="http://www.w3.org/1999/xlink" width="32" height="32"><defs><style type="text/css"></style></defs><path d="M613.333333 298.666667c0-18.133333-13.866667-32-32-32h-320c-18.133333 0-32 13.866667-32 32 0 17.066667 13.866667 32 32 32h320c18.133333 0 32-14.933333 32-32zM261.333333 522.666667h202.666667c18.133333 0 32-14.933333 32-32 0-18.133333-13.866667-32-32-32h-202.666667c-18.133333 0-32 13.866667-32 32 0 17.066667 14.933333 32 32 32zM261.333333 714.666667h245.333334c18.133333 0 32-14.933333 32-32 0-18.133333-13.866667-32-32-32h-245.333334c-18.133333 0-32 13.866667-32 32 0 17.066667 14.933333 32 32 32z" fill="#ffffff" p-id="9130"></path><path d="M816 738.133333c-18.133333 0-32 13.866667-32 32v36.266667c0 49.066667-41.6 89.6-92.8 89.6H215.466667c-51.2 0-92.8-40.533333-92.8-89.6V217.6c0-49.066667 41.6-89.6 92.8-89.6h475.733333c51.2 0 92.8 40.533333 92.8 89.6v36.266667c0 18.133333 13.866667 32 32 32s32-13.866667 32-32v-36.266667C848 133.333333 778.666667 64 692.266667 64H215.466667C129.066667 64 58.666667 133.333333 58.666667 217.6v588.8c0 84.266667 70.4 153.6 156.8 153.6h475.733333c86.4 0 156.8-69.333333 156.8-153.6v-36.266667c0-18.133333-13.866667-32-32-32z" fill="#ffffff" p-id="9131"></path><path d="M769.066667 312.533333c-107.733333 0-196.266667 87.466667-196.266667 196.266667 0 107.733333 87.466667 196.266667 196.266667 196.266667s196.266667-87.466667 196.266666-196.266667c0-107.733333-88.533333-196.266667-196.266666-196.266667z m0 349.866667c-84.266667 0-153.6-68.266667-153.6-153.6 0-84.266667 68.266667-153.6 153.6-153.6s153.6 68.266667 153.6 153.6c0 84.266667-69.333333 153.6-153.6 153.6z" fill="#ffffff" p-id="9132"></path><path d="M769.066667 392.533333c-22.4 0-35.2 7.466667-35.2 27.733334 0 19.2 11.733333 65.066667 21.333333 104.533333 1.066667 6.4 7.466667 11.733333 13.866667 11.733333h1.066666c6.4 0 12.8-5.333333 13.866667-11.733333 8.533333-40.533333 20.266667-85.333333 20.266667-104.533333 0-20.266667-12.8-27.733333-35.2-27.733334z" fill="#ffffff" p-id="9133"></path><path d="M769.066667 589.866667m-32 0a32 32 0 1 0 64 0 32 32 0 1 0-64 0Z" fill="#ffffff" p-id="9134"></path></svg>