<?xml version="1.0" standalone="no"?><!DOCTYPE svg PUBLIC "-//W3C//DTD SVG 1.1//EN" "http://www.w3.org/Graphics/SVG/1.1/DTD/svg11.dtd"><svg t="1607416360084" class="icon" viewBox="0 0 1024 1024" version="1.1" xmlns="http://www.w3.org/2000/svg" p-id="5510" xmlns:xlink="http://www.w3.org/1999/xlink" width="32" height="32"><defs><style type="text/css"></style></defs><path d="M832 704a42.667 42.667 0 0 0-42.667 42.667v106.666H170.667V170.667h618.666V396.8a42.667 42.667 0 0 0 85.334 0V166.4a83.2 83.2 0 0 0-85.334-81.067H170.667A83.2 83.2 0 0 0 85.333 166.4v691.2a83.413 83.413 0 0 0 85.334 81.067h618.666a83.413 83.413 0 0 0 85.334-81.067V746.667A42.667 42.667 0 0 0 832 704z" p-id="5511"></path><path d="M682.667 341.333A42.667 42.667 0 0 0 640 298.667H298.667a42.667 42.667 0 0 0 0 85.333H640a42.667 42.667 0 0 0 42.667-42.667zM298.667 512a42.667 42.667 0 0 0 0 85.333H512A42.667 42.667 0 0 0 512 512z m622.72-20.267a42.667 42.667 0 0 0-60.374 0L649.813 704l-60.16-60.373A42.667 42.667 0 0 0 529.28 704l90.453 90.453a42.667 42.667 0 0 0 60.374 0l241.28-242.346a42.667 42.667 0 0 0 0-60.374z" p-id="5512"></path></svg>