<?xml version="1.0" standalone="no"?><!DOCTYPE svg PUBLIC "-//W3C//DTD SVG 1.1//EN" "http://www.w3.org/Graphics/SVG/1.1/DTD/svg11.dtd"><svg class="icon" width="200px" height="200.00px" viewBox="0 0 1024 1024" version="1.1" xmlns="http://www.w3.org/2000/svg"><path fill="#333333" d="M720.861269 488.617231l76.796709 144.633801H226.436744l76.796709-144.633801h417.627816m21.941917-73.139723H281.291536a36.569861 36.569861 0 0 0-32.364327 19.564876l-115.560762 217.590675a36.569861 36.569861 0 0 0 32.364328 53.757696h692.633172a36.569861 36.569861 0 0 0 32.364328-53.757696l-115.560762-217.590675a36.569861 36.569861 0 0 0-32.364327-19.564876zM512.047361 73.183606a20.296273 20.296273 0 0 1 8.411068 1.645644l122.691885 230.938674H380.944408l122.509036-230.572975A16.822136 16.822136 0 0 1 512.047361 73.183606m0-73.139722a81.367941 81.367941 0 0 0-71.676928 38.215505l-152.496322 287.073411a36.569861 36.569861 0 0 0 32.364327 53.574847h383.983544a36.569861 36.569861 0 0 0 32.364327-53.574847l-152.86202-287.073411A81.367941 81.367941 0 0 0 512.047361 0.043884zM875.186084 816.100339L946.863012 950.860277H77.23171l71.676928-134.577089h726.277446m22.124766-73.139723H126.783872a36.569861 36.569861 0 0 0-32.181478 19.382027l-85.939174 161.455937C-18.215628 969.145208 20.731274 1024 80.340148 1024h863.414425c59.608874 0 98.372927-54.854792 71.676929-100.018571l-85.939174-161.638787a36.569861 36.569861 0 0 0-32.181478-19.382026z" /></svg>