<?xml version="1.0" standalone="no"?><!DOCTYPE svg PUBLIC "-//W3C//DTD SVG 1.1//EN" "http://www.w3.org/Graphics/SVG/1.1/DTD/svg11.dtd"><svg class="icon" width="200px" height="200.00px" viewBox="0 0 1024 1024" version="1.1" xmlns="http://www.w3.org/2000/svg"><path fill="#333333" d="M712 567.432c0 22.092-17.908 40-40 40-53.06-2.106-53.044-77.902 0-80 22.092 0 40 17.908 40 40z m-40 120c-22.092 0-40 17.908-40 40 2.106 53.06 77.902 53.044 80 0 0-22.092-17.908-40-40-40z m312 16c22.092 0 40-17.908 40-40v-360c0-22.092-17.908-40-40-40H732v-44c-12.12-291.932-427.99-291.706-440 0v44H40c-22.092 0-40 17.908-40 40v560c0 88.224 71.776 160 160 160h704c88.224 0 160-71.776 160-160 0-22.092-17.908-40-40-40s-40 17.908-40 40c0 44.112-35.888 80-80 80H160c-44.112 0-80-35.888-80-80v-520h252c22.092 0 40-17.908 40-40v-84c7.712-185.774 272.356-185.632 280 0v44h-160c-53.072 2.112-53.032 77.906 0 80h452v320c0 22.092 17.908 40 40 40z m-472-16c-22.092 0-40 17.908-40 40 2.106 53.06 77.902 53.044 80 0 0-22.092-17.908-40-40-40z m-160 0c-22.092 0-40 17.908-40 40 2.106 53.06 77.902 53.044 80 0 0-22.092-17.908-40-40-40z m0-160c-22.092 0-40 17.908-40 40 2.106 53.06 77.902 53.044 80 0 0-22.092-17.908-40-40-40z m160 0c-22.092 0-40 17.908-40 40 2.106 53.06 77.902 53.044 80 0 0-22.092-17.908-40-40-40z" /></svg>