<?xml version="1.0" standalone="no"?><!DOCTYPE svg PUBLIC "-//W3C//DTD SVG 1.1//EN" "http://www.w3.org/Graphics/SVG/1.1/DTD/svg11.dtd"><svg t="1637545053439" class="icon" viewBox="0 0 1024 1024" version="1.1" xmlns="http://www.w3.org/2000/svg" p-id="1232" xmlns:xlink="http://www.w3.org/1999/xlink" width="150" height="150"><defs><style type="text/css"></style></defs><path d="M0 0h1024v1024H0z" fill="#FFFFFF" p-id="1233"></path><path d="M344 424H120c-44.112 0-80-35.888-80-80V120c0-44.112 35.888-80 80-80h224c44.112 0 80 35.888 80 80v224c0 44.112-35.888 80-80 80z" fill="#FFFFFF" p-id="1234"></path><path d="M120 80c-22.056 0-40 17.944-40 40v224c0 22.056 17.944 40 40 40h224c22.056 0 40-17.944 40-40V120c0-22.056-17.944-40-40-40H120m0-80h224c66.274 0 120 53.726 120 120v224c0 66.274-53.726 120-120 120H120c-66.274 0-120-53.726-120-120V120C0 53.726 53.726 0 120 0z" fill="#505873" p-id="1235"></path><path d="M904 424H680c-44.112 0-80-35.888-80-80V120c0-44.112 35.888-80 80-80h224c44.112 0 80 35.888 80 80v224c0 44.112-35.888 80-80 80z" fill="#D8DDE3" p-id="1236"></path><path d="M680 80c-22.056 0-40 17.944-40 40v224c0 22.056 17.944 40 40 40h224c22.056 0 40-17.944 40-40V120c0-22.056-17.944-40-40-40H680m0-80h224c66.274 0 120 53.726 120 120v224c0 66.274-53.726 120-120 120H680c-66.274 0-120-53.726-120-120V120c0-66.274 53.726-120 120-120z" fill="#505873" p-id="1237"></path><path d="M344 984H120c-44.112 0-80-35.888-80-80V680c0-44.112 35.888-80 80-80h224c44.112 0 80 35.888 80 80v224c0 44.112-35.888 80-80 80z" fill="#D8DDE3" p-id="1238"></path><path d="M120 640c-22.056 0-40 17.944-40 40v224c0 22.056 17.944 40 40 40h224c22.056 0 40-17.944 40-40V680c0-22.056-17.944-40-40-40H120m0-80h224c66.274 0 120 53.726 120 120v224c0 66.274-53.726 120-120 120H120c-66.274 0-120-53.726-120-120V680c0-66.274 53.726-120 120-120z" fill="#505873" p-id="1239"></path><path d="M970 792H614a40 40 0 0 1 0-80h356a40 40 0 0 1 0 80z" fill="#505873" p-id="1240"></path><path d="M970 640H614a40 40 0 0 1 0-80h356a40 40 0 0 1 0 80z" fill="#505873" p-id="1241"></path><path d="M970 944H614a40 40 0 0 1 0-80h356a40 40 0 0 1 0 80z" fill="#FF402A" p-id="1242"></path></svg>