<?xml version="1.0" standalone="no"?><!DOCTYPE svg PUBLIC "-//W3C//DTD SVG 1.1//EN" "http://www.w3.org/Graphics/SVG/1.1/DTD/svg11.dtd"><svg t="1607413799275" class="icon" viewBox="0 0 1024 1024" version="1.1" xmlns="http://www.w3.org/2000/svg" p-id="1500" xmlns:xlink="http://www.w3.org/1999/xlink" width="32" height="32"><defs><style type="text/css"></style></defs><path d="M874.4 400.5c-13.8-16.7-33.5-32.2-58.6-46.1v-140c0-47.4-38.7-86-86.3-86H295.6c-47.6 0-86.3 38.6-86.3 86v140c-25.2 13.9-44.9 29.4-58.6 46.1-15 18.2-22.7 37.5-22.7 57.2v351.5c0 23 9 44.6 25.3 60.8 16.3 16.2 38 25.2 61 25.2h596.5c47.6 0 86.3-38.6 86.3-86V457.7c0-19.7-7.7-39-22.7-57.2zM192.1 809.1l0.1-265.4c91.4 45.8 230.3 81.1 320.4 81.1 90 0 228.9-35.3 320.4-81.1v265.4c0 12.2-9.9 22.1-22.2 22.1H214.3c-12.3 0-22.2-9.9-22.2-22.1zM815.7 481v-49.5c10.9 9.7 17.2 19.1 17.2 26.2 0 5.3-3.6 12.2-10.1 19.3-2.3 1.4-4.7 2.7-7.1 4z m-64 28.9c-77.2 29.2-179.3 51-239.1 51-59.8 0-161.9-21.8-239.1-51V214.4c0-12.2 9.9-22.1 22.2-22.1h433.9c12.2 0 22.2 9.9 22.2 22.1v295.5zM209.4 481c-2.4-1.3-4.7-2.6-7-4-6.6-7.2-10.2-14.1-10.2-19.4 0-7.1 6.3-16.6 17.2-26.2V481z" p-id="1501"></path><path d="M607.8 383c-11.5-11.5-30.2-11.5-41.7 0L542 407V294.4c0-16.3-13.2-29.5-29.5-29.5S483 278.1 483 294.4V407l-24-24c-11.5-11.5-30.2-11.5-41.7 0-11.5 11.5-11.5 30.2 0 41.7l74.4 74.4 0.2 0.2c0.3 0.3 0.6 0.5 0.9 0.8 0.2 0.2 0.4 0.3 0.6 0.5 0.2 0.1 0.3 0.3 0.5 0.4 0.2 0.2 0.5 0.4 0.7 0.6 0.1 0.1 0.3 0.2 0.4 0.3 0.3 0.2 0.5 0.4 0.8 0.6 0.1 0.1 0.2 0.2 0.4 0.3 0.3 0.2 0.6 0.4 0.8 0.5 0.1 0.1 0.2 0.2 0.4 0.2 0.3 0.2 0.6 0.3 0.8 0.5 0.1 0.1 0.3 0.2 0.4 0.2 0.3 0.1 0.5 0.3 0.8 0.4 0.2 0.1 0.3 0.2 0.5 0.2 0.2 0.1 0.5 0.2 0.7 0.3l0.6 0.3c0.2 0.1 0.4 0.2 0.7 0.3 0.2 0.1 0.5 0.2 0.7 0.3 0.2 0.1 0.4 0.1 0.6 0.2 0.3 0.1 0.5 0.2 0.8 0.3 0.2 0.1 0.3 0.1 0.5 0.1 0.3 0.1 0.6 0.2 0.9 0.2 0.2 0 0.3 0.1 0.5 0.1 0.3 0.1 0.6 0.1 0.9 0.2 0.2 0 0.3 0.1 0.5 0.1 0.3 0.1 0.6 0.1 0.9 0.2 0.2 0 0.4 0 0.6 0.1 0.3 0 0.6 0.1 0.8 0.1 0.3 0 0.5 0 0.8 0.1h4.4c0.3 0 0.5 0 0.8-0.1 0.3 0 0.6-0.1 0.8-0.1 0.2 0 0.4 0 0.6-0.1 0.3 0 0.6-0.1 0.9-0.2 0.2 0 0.3-0.1 0.5-0.1 0.3-0.1 0.6-0.1 0.9-0.2 0.2 0 0.3-0.1 0.5-0.1 0.3-0.1 0.6-0.2 0.9-0.2 0.2 0 0.4-0.1 0.5-0.1 0.3-0.1 0.5-0.2 0.8-0.3 0.2-0.1 0.4-0.1 0.6-0.2 0.2-0.1 0.5-0.2 0.7-0.3 0.2-0.1 0.4-0.2 0.7-0.3l0.6-0.3c0.2-0.1 0.5-0.2 0.7-0.3 0.2-0.1 0.3-0.2 0.5-0.2 0.3-0.1 0.5-0.3 0.8-0.4 0.1-0.1 0.3-0.2 0.4-0.2 0.3-0.2 0.6-0.3 0.8-0.5 0.1-0.1 0.2-0.2 0.4-0.2 0.3-0.2 0.6-0.4 0.8-0.5 0.1-0.1 0.2-0.2 0.4-0.3 0.3-0.2 0.5-0.4 0.8-0.6 0.1-0.1 0.3-0.2 0.4-0.3 0.2-0.2 0.5-0.4 0.7-0.6 0.2-0.1 0.3-0.3 0.5-0.4 0.2-0.2 0.4-0.3 0.6-0.5 0.3-0.3 0.6-0.5 0.9-0.8l0.2-0.2 74.4-74.4c11.5-11.5 11.5-30.2-0.1-41.7z" p-id="1502"></path></svg>